{
	"asset":{
		"generator":"Khronos glTF Blender I/O v3.6.27",
		"version":"2.0"
	},
	"extensionsUsed":[
		"KHR_texture_transform"
	],
	"extensionsRequired":[
		"KHR_texture_transform"
	],
	"scene":0,
	"scenes":[
		{
			"name":"Scene",
			"nodes":[
				0,
				1,
				2
			]
		}
	],
	"nodes":[
		{
			"mesh":0,
			"name":"Cube.010",
			"translation":[
				-11.871378898620605,
				5.062290191650391,
				-3.316021203994751
			]
		},
		{
			"mesh":1,
			"name":"Cube.001",
			"translation":[
				-36.280296325683594,
				-1.3331495523452759,
				-25.505517959594727
			]
		},
		{
			"mesh":2,
			"name":"Cube.002",
			"rotation":[
				0,
				1,
				0,
				4.371138828673793e-08
			],
			"translation":[
				0.8354332447052002,
				-1.309832215309143,
				-38.441898345947266
			]
		}
	],
	"materials":[
		{
			"doubleSided":true,
			"name":"Material.002",
			"normalTexture":{
				"extensions":{
					"KHR_texture_transform":{
						"scale":[
							2,
							1
						]
					}
				},
				"index":0
			},
			"pbrMetallicRoughness":{
				"baseColorTexture":{
					"extensions":{
						"KHR_texture_transform":{
							"scale":[
								2,
								1
							]
						}
					},
					"index":1
				},
				"metallicFactor":0,
				"metallicRoughnessTexture":{
					"extensions":{
						"KHR_texture_transform":{
							"scale":[
								2,
								1
							]
						}
					},
					"index":2
				}
			}
		},
		{
			"doubleSided":true,
			"name":"house_int",
			"pbrMetallicRoughness":{
				"baseColorTexture":{
					"extensions":{
						"KHR_texture_transform":{
							"offset":[
								0,
								-2
							],
							"scale":[
								3,
								3
							]
						}
					},
					"index":3
				},
				"metallicFactor":0,
				"roughnessFactor":0.5
			}
		},
		{
			"doubleSided":true,
			"name":"wall_int",
			"normalTexture":{
				"extensions":{
					"KHR_texture_transform":{
						"offset":[
							0,
							-3
						],
						"scale":[
							4,
							4
						]
					}
				},
				"index":4,
				"scale":1.5
			},
			"pbrMetallicRoughness":{
				"baseColorTexture":{
					"extensions":{
						"KHR_texture_transform":{
							"offset":[
								0,
								-3
							],
							"scale":[
								4,
								4
							]
						}
					},
					"index":5
				},
				"metallicFactor":0,
				"metallicRoughnessTexture":{
					"extensions":{
						"KHR_texture_transform":{
							"offset":[
								0,
								-3
							],
							"scale":[
								4,
								4
							]
						}
					},
					"index":6
				}
			}
		},
		{
			"doubleSided":true,
			"name":"floor_mat",
			"normalTexture":{
				"extensions":{
					"KHR_texture_transform":{
						"offset":[
							0,
							-2
						],
						"scale":[
							3,
							3
						]
					}
				},
				"index":7,
				"scale":7
			},
			"pbrMetallicRoughness":{
				"baseColorTexture":{
					"extensions":{
						"KHR_texture_transform":{
							"offset":[
								0,
								-2
							],
							"scale":[
								3,
								3
							]
						}
					},
					"index":8
				},
				"metallicFactor":0,
				"metallicRoughnessTexture":{
					"extensions":{
						"KHR_texture_transform":{
							"offset":[
								0,
								-2
							],
							"scale":[
								3,
								3
							]
						}
					},
					"index":9
				}
			}
		},
		{
			"doubleSided":true,
			"name":"Material",
			"normalTexture":{
				"extensions":{
					"KHR_texture_transform":{
						"offset":[
							0.3139924474288316,
							0.05057451953423309
						],
						"rotation":-0.3193952441215515,
						"scale":[
							3,
							1
						]
					}
				},
				"index":10,
				"scale":0
			},
			"pbrMetallicRoughness":{
				"baseColorTexture":{
					"extensions":{
						"KHR_texture_transform":{
							"offset":[
								0.3139924474288316,
								0.05057451953423309
							],
							"rotation":-0.3193952441215515,
							"scale":[
								3,
								1
							]
						}
					},
					"index":11
				},
				"metallicFactor":0,
				"metallicRoughnessTexture":{
					"extensions":{
						"KHR_texture_transform":{
							"offset":[
								0.3139924474288316,
								0.05057451953423309
							],
							"rotation":-0.3193952441215515,
							"scale":[
								3,
								1
							]
						}
					},
					"index":12
				}
			}
		},
		{
			"doubleSided":true,
			"name":"stairs",
			"normalTexture":{
				"extensions":{
					"KHR_texture_transform":{
						"offset":[
							-0.9993283933773078,
							0.963356280348077
						],
						"rotation":1.534144401550293,
						"scale":[
							3,
							1
						]
					}
				},
				"index":13,
				"scale":10
			},
			"pbrMetallicRoughness":{
				"baseColorTexture":{
					"extensions":{
						"KHR_texture_transform":{
							"offset":[
								-0.9993283933773078,
								0.963356280348077
							],
							"rotation":1.534144401550293,
							"scale":[
								3,
								1
							]
						}
					},
					"index":14
				},
				"metallicFactor":0,
				"metallicRoughnessTexture":{
					"extensions":{
						"KHR_texture_transform":{
							"offset":[
								-0.9993283933773078,
								0.963356280348077
							],
							"rotation":1.534144401550293,
							"scale":[
								3,
								1
							]
						}
					},
					"index":15
				}
			}
		}
	],
	"meshes":[
		{
			"name":"Cube.019",
			"primitives":[
				{
					"attributes":{
						"POSITION":0,
						"NORMAL":1,
						"TEXCOORD_0":2
					},
					"indices":3,
					"material":0
				},
				{
					"attributes":{
						"POSITION":4,
						"NORMAL":5,
						"TEXCOORD_0":6
					},
					"indices":7,
					"material":1
				},
				{
					"attributes":{
						"POSITION":8,
						"NORMAL":9,
						"TEXCOORD_0":10
					},
					"indices":11,
					"material":2
				},
				{
					"attributes":{
						"POSITION":12,
						"NORMAL":13,
						"TEXCOORD_0":14
					},
					"indices":15,
					"material":3
				},
				{
					"attributes":{
						"POSITION":16,
						"NORMAL":17,
						"TEXCOORD_0":18
					},
					"indices":19,
					"material":4
				}
			]
		},
		{
			"name":"Cube.003",
			"primitives":[
				{
					"attributes":{
						"POSITION":20,
						"NORMAL":21,
						"TEXCOORD_0":22
					},
					"indices":23,
					"material":5
				}
			]
		},
		{
			"name":"Cube.006",
			"primitives":[
				{
					"attributes":{
						"POSITION":24,
						"NORMAL":25,
						"TEXCOORD_0":26
					},
					"indices":23,
					"material":5
				}
			]
		}
	],
	"textures":[
		{
			"sampler":0,
			"source":0
		},
		{
			"sampler":0,
			"source":1
		},
		{
			"sampler":0,
			"source":2
		},
		{
			"sampler":0,
			"source":3
		},
		{
			"sampler":0,
			"source":4
		},
		{
			"sampler":0,
			"source":5
		},
		{
			"sampler":0,
			"source":6
		},
		{
			"sampler":0,
			"source":7
		},
		{
			"sampler":0,
			"source":8
		},
		{
			"sampler":0,
			"source":9
		},
		{
			"sampler":0,
			"source":10
		},
		{
			"sampler":0,
			"source":11
		},
		{
			"sampler":0,
			"source":12
		},
		{
			"sampler":0,
			"source":10
		},
		{
			"sampler":0,
			"source":11
		},
		{
			"sampler":0,
			"source":12
		}
	],
	"images":[
		{
			"mimeType":"image/png",
			"name":"brick_wall_001_nor_gl_4k",
			"uri":"brick_wall_001_nor_gl_4k.png"
		},
		{
			"mimeType":"image/jpeg",
			"name":"brick_wall_001_diffuse_4k",
			"uri":"brick_wall_001_diffuse_4k.jpg"
		},
		{
			"mimeType":"image/png",
			"name":"brick_wall_001_rough_4k",
			"uri":"brick_wall_001_rough_4k.png"
		},
		{
			"mimeType":"image/jpeg",
			"name":"house_int",
			"uri":"house_int.jpg"
		},
		{
			"mimeType":"image/png",
			"name":"grey_plaster_03_nor_gl_1k",
			"uri":"grey_plaster_03_nor_gl_1k.png"
		},
		{
			"mimeType":"image/jpeg",
			"name":"grey_plaster_03_diff_1k",
			"uri":"grey_plaster_03_diff_1k.jpg"
		},
		{
			"mimeType":"image/png",
			"name":"grey_plaster_03_rough_1k",
			"uri":"grey_plaster_03_rough_1k.png"
		},
		{
			"mimeType":"image/png",
			"name":"weathered_brown_planks_nor_gl_1k",
			"uri":"weathered_brown_planks_nor_gl_1k.png"
		},
		{
			"mimeType":"image/jpeg",
			"name":"weathered_brown_planks_diff_1k",
			"uri":"weathered_brown_planks_diff_1k.jpg"
		},
		{
			"mimeType":"image/png",
			"name":"weathered_brown_planks_rough_1k",
			"uri":"weathered_brown_planks_rough_1k.png"
		},
		{
			"mimeType":"image/png",
			"name":"weathered_brown_planks_nor_gl_1k.exr",
			"uri":"weathered_brown_planks_nor_gl_1k_exr.png"
		},
		{
			"mimeType":"image/jpeg",
			"name":"weathered_brown_planks_diff_1k.jpg",
			"uri":"weathered_brown_planks_diff_1k_jpg.jpg"
		},
		{
			"mimeType":"image/png",
			"name":"weathered_brown_planks_rough_1k.jpg",
			"uri":"weathered_brown_planks_rough_1k_jpg.png"
		}
	],
	"accessors":[
		{
			"bufferView":0,
			"componentType":5126,
			"count":1047,
			"max":[
				12.019539833068848,
				5,
				3.638287305831909
			],
			"min":[
				-23.58930206298828,
				-5,
				-38.663421630859375
			],
			"type":"VEC3"
		},
		{
			"bufferView":1,
			"componentType":5126,
			"count":1047,
			"type":"VEC3"
		},
		{
			"bufferView":2,
			"componentType":5126,
			"count":1047,
			"type":"VEC2"
		},
		{
			"bufferView":3,
			"componentType":5123,
			"count":2868,
			"type":"SCALAR"
		},
		{
			"bufferView":4,
			"componentType":5126,
			"count":116,
			"max":[
				0.13436125218868256,
				5,
				3.638287305831909
			],
			"min":[
				-7.647223949432373,
				-5,
				-3.6271235942840576
			],
			"type":"VEC3"
		},
		{
			"bufferView":5,
			"componentType":5126,
			"count":116,
			"type":"VEC3"
		},
		{
			"bufferView":6,
			"componentType":5126,
			"count":116,
			"type":"VEC2"
		},
		{
			"bufferView":7,
			"componentType":5123,
			"count":267,
			"type":"SCALAR"
		},
		{
			"bufferView":8,
			"componentType":5126,
			"count":346,
			"max":[
				11.987253189086914,
				5,
				-3.3335413932800293
			],
			"min":[
				-23.58930206298828,
				-5,
				-38.425384521484375
			],
			"type":"VEC3"
		},
		{
			"bufferView":9,
			"componentType":5126,
			"count":346,
			"type":"VEC3"
		},
		{
			"bufferView":10,
			"componentType":5126,
			"count":346,
			"type":"VEC2"
		},
		{
			"bufferView":11,
			"componentType":5123,
			"count":954,
			"type":"SCALAR"
		},
		{
			"bufferView":12,
			"componentType":5126,
			"count":50,
			"max":[
				12.006267547607422,
				4.919336318969727,
				3.4938793182373047
			],
			"min":[
				-23.60535430908203,
				-5.062290191650391,
				-38.64897918701172
			],
			"type":"VEC3"
		},
		{
			"bufferView":13,
			"componentType":5126,
			"count":50,
			"type":"VEC3"
		},
		{
			"bufferView":14,
			"componentType":5126,
			"count":50,
			"type":"VEC2"
		},
		{
			"bufferView":15,
			"componentType":5123,
			"count":180,
			"type":"SCALAR"
		},
		{
			"bufferView":16,
			"componentType":5126,
			"count":60,
			"max":[
				12.010202407836914,
				-4.962290287017822,
				3.7596147060394287
			],
			"min":[
				-23.647079467773438,
				-8.046030044555664,
				-38.621028900146484
			],
			"type":"VEC3"
		},
		{
			"bufferView":17,
			"componentType":5126,
			"count":60,
			"type":"VEC3"
		},
		{
			"bufferView":18,
			"componentType":5126,
			"count":60,
			"type":"VEC2"
		},
		{
			"bufferView":19,
			"componentType":5123,
			"count":108,
			"type":"SCALAR"
		},
		{
			"bufferView":20,
			"componentType":5126,
			"count":72,
			"max":[
				0.7202633023262024,
				1.364979863166809,
				1.5920015573501587
			],
			"min":[
				-3.6000609397888184,
				-1.3693405389785767,
				-1.5952322483062744
			],
			"type":"VEC3"
		},
		{
			"bufferView":21,
			"componentType":5126,
			"count":72,
			"type":"VEC3"
		},
		{
			"bufferView":22,
			"componentType":5126,
			"count":72,
			"type":"VEC2"
		},
		{
			"bufferView":23,
			"componentType":5123,
			"count":108,
			"type":"SCALAR"
		},
		{
			"bufferView":24,
			"componentType":5126,
			"count":72,
			"max":[
				0.7202633023262024,
				1.364979863166809,
				1.5920015573501587
			],
			"min":[
				-3.6000609397888184,
				-1.3693405389785767,
				-1.5952322483062744
			],
			"type":"VEC3"
		},
		{
			"bufferView":25,
			"componentType":5126,
			"count":72,
			"type":"VEC3"
		},
		{
			"bufferView":26,
			"componentType":5126,
			"count":72,
			"type":"VEC2"
		}
	],
	"bufferViews":[
		{
			"buffer":0,
			"byteLength":12564,
			"byteOffset":0,
			"target":34962
		},
		{
			"buffer":0,
			"byteLength":12564,
			"byteOffset":12564,
			"target":34962
		},
		{
			"buffer":0,
			"byteLength":8376,
			"byteOffset":25128,
			"target":34962
		},
		{
			"buffer":0,
			"byteLength":5736,
			"byteOffset":33504,
			"target":34963
		},
		{
			"buffer":0,
			"byteLength":1392,
			"byteOffset":39240,
			"target":34962
		},
		{
			"buffer":0,
			"byteLength":1392,
			"byteOffset":40632,
			"target":34962
		},
		{
			"buffer":0,
			"byteLength":928,
			"byteOffset":42024,
			"target":34962
		},
		{
			"buffer":0,
			"byteLength":534,
			"byteOffset":42952,
			"target":34963
		},
		{
			"buffer":0,
			"byteLength":4152,
			"byteOffset":43488,
			"target":34962
		},
		{
			"buffer":0,
			"byteLength":4152,
			"byteOffset":47640,
			"target":34962
		},
		{
			"buffer":0,
			"byteLength":2768,
			"byteOffset":51792,
			"target":34962
		},
		{
			"buffer":0,
			"byteLength":1908,
			"byteOffset":54560,
			"target":34963
		},
		{
			"buffer":0,
			"byteLength":600,
			"byteOffset":56468,
			"target":34962
		},
		{
			"buffer":0,
			"byteLength":600,
			"byteOffset":57068,
			"target":34962
		},
		{
			"buffer":0,
			"byteLength":400,
			"byteOffset":57668,
			"target":34962
		},
		{
			"buffer":0,
			"byteLength":360,
			"byteOffset":58068,
			"target":34963
		},
		{
			"buffer":0,
			"byteLength":720,
			"byteOffset":58428,
			"target":34962
		},
		{
			"buffer":0,
			"byteLength":720,
			"byteOffset":59148,
			"target":34962
		},
		{
			"buffer":0,
			"byteLength":480,
			"byteOffset":59868,
			"target":34962
		},
		{
			"buffer":0,
			"byteLength":216,
			"byteOffset":60348,
			"target":34963
		},
		{
			"buffer":0,
			"byteLength":864,
			"byteOffset":60564,
			"target":34962
		},
		{
			"buffer":0,
			"byteLength":864,
			"byteOffset":61428,
			"target":34962
		},
		{
			"buffer":0,
			"byteLength":576,
			"byteOffset":62292,
			"target":34962
		},
		{
			"buffer":0,
			"byteLength":216,
			"byteOffset":62868,
			"target":34963
		},
		{
			"buffer":0,
			"byteLength":864,
			"byteOffset":63084,
			"target":34962
		},
		{
			"buffer":0,
			"byteLength":864,
			"byteOffset":63948,
			"target":34962
		},
		{
			"buffer":0,
			"byteLength":576,
			"byteOffset":64812,
			"target":34962
		}
	],
	"samplers":[
		{
			"magFilter":9729,
			"minFilter":9987
		}
	],
	"buffers":[
		{
			"byteLength":65388,
			"uri":"house_test.bin"
		}
	]
}
